# xmcd
#
# Track frame offsets:
#	150
#	15301
#	32227
#	50389
#	68005
#	82766
#	95876
#	108978
#	125259
#	140602
#	155857
#	170671
#	187954
#	202717
#	220450
#	238169
#	253038
#	270136
#	290877
#
# Disc length: 4096 seconds
#
# Revision: 2
# Processed by: cddbd v1.5.2PL0 Copyright (c) Steve Scherf et al.
# Submitted via: audiograbber 1.83.01
#
DISCID=0f0ffe13
DTITLE=Various Artist - Promo Only Country Radio May 2012
DYEAR=2012
DGENRE=Country
TTITLE0=Glen Templeton - Sing That Song Again
TTITLE1=Chris Young - Neon
TTITLE2=Tim Culpepper - Ghost
TTITLE3=Justin Moore - 'Til My Last Day
TTITLE4=Jerrod Niemann - Shinin' On Me
TTITLE5=Jaida Dreyer - Guy's Girl
TTITLE6=Brian Milson - Country Life
TTITLE7=The Band Perry - Postcard From Paris
TTITLE8=Cledus T. Judd - Double D Cups
TTITLE9=Toby Keith - Beers Ago
TTITLE10=Edens Edge - Too Good To Be True
TTITLE11=Pat Green - All Just To Get To You
TTITLE12=Chelsea Bain - Rockin That Trailer
TTITLE13=David Frizzell and Friends - Say Hello To Heaven
TTITLE14=Miss Willie Brown - You're All That Matters To Me
TTITLE15=Jessie James - When You Say My Name
TTITLE16=Martina McBride ft. Pat Monahan - Marry Me
TTITLE17=Mike and Ruthy - My New York City
TTITLE18=Rachel Holder - In Your Arms
EXTD=
EXTT0=
EXTT1=
EXTT2=
EXTT3=
EXTT4=
EXTT5=
EXTT6=
EXTT7=
EXTT8=
EXTT9=
EXTT10=
EXTT11=
EXTT12=
EXTT13=
EXTT14=
EXTT15=
EXTT16=
EXTT17=
EXTT18=
PLAYORDER=
